<?xml version="1.0" encoding="UTF-8"?>
<svg version="1.1" xmlns="http://www.w3.org/2000/svg" width="225" height="225">
<path d="M0 0 C74.25 0 148.5 0 225 0 C225 74.25 225 148.5 225 225 C150.75 225 76.5 225 0 225 C0 150.75 0 76.5 0 0 Z " fill="#656565" transform="translate(0,0)"/>
<path d="M0 0 C36.3 0 72.6 0 110 0 C110 2.31 110 4.62 110 7 C73.37 7 36.74 7 -1 7 C-0.67 4.69 -0.34 2.38 0 0 Z " fill="#000000" transform="translate(100,53)"/>
<path d="M0 0 C36.3 0 72.6 0 110 0 C110 2.31 110 4.62 110 7 C73.37 7 36.74 7 -1 7 C-0.67 4.69 -0.34 2.38 0 0 Z " fill="#000000" transform="translate(100,23)"/>
<path d="M0 0 C36.3 0 72.6 0 110 0 C110 2.31 110 4.62 110 7 C73.37 7 36.74 7 -1 7 C-0.67 4.69 -0.34 2.38 0 0 Z " fill="#000000" transform="translate(100,87)"/>
<path d="M0 0 C9.07501568 -0.06946571 18.14994005 -0.12279367 27.22516346 -0.15543652 C31.43902276 -0.17110231 35.65270036 -0.19235703 39.86645508 -0.22631836 C43.93186419 -0.25887957 47.99709836 -0.27684613 52.06262779 -0.28463173 C53.61481163 -0.2901811 55.16698573 -0.30101755 56.71909523 -0.31719017 C58.89082259 -0.33892207 61.06182424 -0.3419688 63.23364258 -0.34057617 C65.08896355 -0.35056892 65.08896355 -0.35056892 66.98176575 -0.36076355 C70 -0 70 -0 71.92289734 1.39628601 C73 3 73 3 73 5 C48.91 5 24.82 5 0 5 C0 3.35 0 1.7 0 0 Z " fill="#898989" transform="translate(0,0)"/>
<path d="M0 0 C8.91 0 17.82 0 27 0 C26.67 0.99 26.34 1.98 26 3 C17.42 3 8.84 3 0 3 C0 2.01 0 1.02 0 0 Z " fill="#A7A7A7" transform="translate(0,0)"/>
</svg>
